<?xml version="1.0" encoding="UTF-8" standalone="no"?>
<!-- Created with Inkscape (http://www.inkscape.org/) -->

<svg
   xmlns:dc="http://purl.org/dc/elements/1.1/"
   xmlns:cc="http://creativecommons.org/ns#"
   xmlns:rdf="http://www.w3.org/1999/02/22-rdf-syntax-ns#"
   xmlns:svg="http://www.w3.org/2000/svg"
   xmlns="http://www.w3.org/2000/svg"
   xmlns:sodipodi="http://sodipodi.sourceforge.net/DTD/sodipodi-0.dtd"
   xmlns:inkscape="http://www.inkscape.org/namespaces/inkscape"
   width="744.09448819"
   height="1052.3622047"
   id="svg2"
   version="1.1"
   inkscape:version="0.47 r22583"
   sodipodi:docname="New document 1">
  <defs
     id="defs4">
    <inkscape:perspective
       sodipodi:type="inkscape:persp3d"
       inkscape:vp_x="0 : 526.18109 : 1"
       inkscape:vp_y="0 : 1000 : 0"
       inkscape:vp_z="744.09448 : 526.18109 : 1"
       inkscape:persp3d-origin="372.04724 : 350.78739 : 1"
       id="perspective10" />
    <inkscape:perspective
       id="perspective3018"
       inkscape:persp3d-origin="204.0435 : 132.17134 : 1"
       inkscape:vp_z="408.08701 : 198.257 : 1"
       inkscape:vp_y="0 : 1000 : 0"
       inkscape:vp_x="0 : 198.257 : 1"
       sodipodi:type="inkscape:persp3d" />
  </defs>
  <sodipodi:namedview
     id="base"
     pagecolor="#ffffff"
     bordercolor="#666666"
     borderopacity="1.0"
     inkscape:pageopacity="0.0"
     inkscape:pageshadow="2"
     inkscape:zoom="0.35"
     inkscape:cx="375"
     inkscape:cy="514.28571"
     inkscape:document-units="px"
     inkscape:current-layer="layer1"
     showgrid="false"
     inkscape:window-width="615"
     inkscape:window-height="499"
     inkscape:window-x="0"
     inkscape:window-y="49"
     inkscape:window-maximized="0" />
  <metadata
     id="metadata7">
    <rdf:RDF>
      <cc:Work
         rdf:about="">
        <dc:format>image/svg+xml</dc:format>
        <dc:type
           rdf:resource="http://purl.org/dc/dcmitype/StillImage" />
        <dc:title></dc:title>
      </cc:Work>
    </rdf:RDF>
  </metadata>
  <g
     inkscape:label="Layer 1"
     inkscape:groupmode="layer"
     id="layer1">
    <g
       style="overflow:visible"
       id="g3021"
       transform="translate(170.95728,339.81897)">
      <path
         style="fill-rule:evenodd"
         id="path3"
         d="m 263.635,389.274 c -4.877,-2.141 -7.498,-6.867 -8.169,-12.066 0.801,10.164 -29.101,-3.799 -33.849,-5.445 -31.146,-10.799 -59.23,-27.699 -88.482,-42.447 -22.708,-11.448 -44.76,-25.854 -69.057,-33.414 -14.932,-4.646 -31.329,-9.949 -43.439,-20.233 5.717,-2.839 3.715,-8.899 -0.371,-12.81 15.942,17.017 44.76,26.297 65.652,34.652 29.886,11.952 56.258,32.135 86.121,43.432 11.286,4.269 23.423,3.762 34.418,9.164 8.522,4.188 12.291,8.561 20.977,11.881 6.475,2.476 14.689,9.748 20.048,6.403 3.538,-2.208 5.918,-0.379 7.61,2.136 4.411,-15.359 -44.477,-27.279 -57.731,-33.043 -40.312,-17.53 -80.851,-35.864 -120.996,-54.237 -20.918,-9.573 -40.085,-18.646 -59.39,-31.066 -6.733,-4.332 23.817,-47.942 28.008,-55.125 23.477,-40.237 46.021,-80.566 67.904,-121.693 0.097,-0.182 -1.802,1.511 -2.59,2.235 -3.451,-7.684 6.152,-8.649 8.849,-13.744 11.069,-20.907 29.2,-37.234 44.984,-54.756 -4.477,-3.583 -28.989,-1.374 -33.414,4.456 6.283,5.921 23.746,1.624 9.84,13.179 -0.715,-0.447 -0.799,-1.472 -1.3,-1.856 -3.836,6.126 -7.673,12.252 -11.51,18.379 0.186,0.062 0.248,0 0.185,-0.187 0.034,0.234 0.368,-0.176 0.372,-0.185 -0.129,4.497 -2.484,8.459 -5.754,11.694 0.294,-1.414 0.432,-2.861 0.741,-4.269 -11.388,16.988 -22.184,32.81 -33.042,49.564 2.182,-1.828 4.325,-2.21 6.684,-3.528 -1.362,3.799 -3.296,7.35 -5.756,10.582 -0.598,-3.1 -1.438,-3.772 -0.928,-7.054 -3.156,6.497 -6.311,12.995 -9.467,19.492 0.419,0.209 1.751,0.033 2.413,0.372 -1.314,2.965 -3.19,5.455 -5.754,7.239 -0.281,-0.51 0.127,-1.576 -0.187,-2.042 -7.724,12.229 -15.795,27.113 -21.72,36.94 -4.76,7.895 -13.173,19.038 -16.335,27.289 -0.992,2.589 -1.002,7.934 -2.97,11.139 -2.48,4.038 -7.861,1.796 -10.21,9.653 9.644,-4.765 4.569,6.529 0,10.581 -2.656,-3.104 -2.396,-6.851 0,-10.581 -2.711,5.62 -8.847,12.599 -5.754,17.263 -6.136,0.779 -6.743,12.27 -9.839,17.451 0.255,-7.224 4.936,-10.574 7.425,-17.451 -9.332,-0.605 -17.404,2.109 -17.821,12.623 -0.161,4.051 0.167,6.605 2.6,9.653 1.569,1.966 5.42,-0.222 6.312,0.557 2.246,1.961 5.833,6.705 8.354,10.582 -6.224,1.562 -1.742,12.321 0.928,17.635 5.854,11.65 14.026,12.123 24.689,15.407 28.257,8.702 52.903,22.965 78.654,38.256 15.628,9.279 138.077,73.994 145.406,56.604 -1.118,0.955 -2.098,0.881 -3.339,0.739" />
      <path
         id="path5"
         d="m 127.751,43.253 c 5.14,-8.208 10.52,-16.701 11.881,-24.133 -2.339,-1.99 -6.066,-4.423 -8.912,-5.569 -3.806,6.521 3.275,14.01 -0.741,19.492 -4.624,6.31 -13.498,1.364 -16.985,12.994 -0.812,2.706 0.713,9.047 0.278,10.023 -2.294,5.154 -5.302,2.366 -9.653,7.24 -4.371,4.897 -4.647,14.152 -2.6,20.235 8.747,-13.046 16.524,-28.825 26.732,-40.282" />
      <path
         style="fill-rule:evenodd"
         id="path7"
         d="m 116.798,67.942 c 6.277,-0.561 13.145,7.94 18.193,5.197 7.965,-4.328 -2.853,-10.257 -7.055,-12.251 4.435,-5.338 7.896,-11.961 12.994,-16.707 2.557,-2.38 10.688,2.91 4.641,-5.198 3.773,-3.289 6.705,-7.239 9.561,-11.325 3.963,-5.668 7.146,-1.943 8.633,-2.785 1.193,-0.675 4.979,4.408 5.939,-2.041 0.936,-6.289 -8.667,-5.872 -5.011,-13.366 -0.187,0.063 -0.249,0 -0.187,-0.186 -0.185,0.062 -0.247,0 -0.185,-0.186 -17.915,18.322 -34.57,37.045 -47.523,58.848" />
      <path
         style="fill-rule:evenodd"
         id="path9"
         d="M 159.865,314.092 C 119.591,288.258 73.852,276.709 30.943,256.917 c -6.514,-3.005 -14.373,-9.095 -5.291,-15.223 2.462,-1.661 8.005,1.196 8.539,0.743 6.318,-5.355 -2.282,-2.491 -1.485,-8.91 0.856,-6.905 10.607,-15.489 14.294,-17.821 3.31,-2.094 6.603,3.476 9.097,-1.485 1.193,-2.374 -6.888,-6.603 -8.354,-7.054 6.66,-8.395 12.565,-17.153 17.729,-26.545 3.679,-6.691 4.226,-5.906 8.631,-7.612 2.242,-0.869 8.475,5.939 9.375,0.837 1.103,-6.253 -8.158,-7.569 -8.447,-13.088 -0.226,-4.311 4.718,-10.259 7.425,-13.179 8.652,10.397 13.709,-4.618 2.971,-5.941 2.02,-4.848 3.699,-14.223 7.61,-17.822 6.024,-5.544 11.811,2.481 16.15,-2.042 5.943,-6.193 -6.457,-7.306 -7.61,-10.025 -1.41,-3.323 0.579,-12.494 5.754,-13.736 1.692,-0.406 8.771,4.399 11.51,4.641 -2.282,-11.069 -11.744,-4.971 -6.684,-15.594 1.95,-4.094 14.791,-17.035 0.372,-12.623 -5.028,1.539 -8.841,15.313 -10.838,19.319 -6.463,12.966 -12.926,25.933 -19.389,38.899 -8.921,17.897 -20.1,34.892 -30.171,52.153 -12.688,21.744 -25.375,43.489 -38.062,65.233 -2.273,3.896 50.495,27.8 54.011,29.409 42.941,19.652 86.07,38.797 129.285,57.844 -9.053,-13.303 -29.169,-8.919 -37.5,-23.203" />
      <path
         style="fill:#ff40ff;fill-rule:evenodd"
         id="path11"
         d="m 197.735,338.04 c 3.164,2.126 6.799,3.527 10.582,4.084 -2.8,-1.235 -10.738,-4.078 -10.582,-4.084" />
      <path
         style="fill:#ff40ff"
         id="path13"
         d="m 311.9,260.817 c -2.66,5.569 -5.321,11.138 -7.981,16.707 3.331,-4.99 6.697,-11.472 7.981,-16.707" />
      <path
         style="fill:#ff40ff;fill-rule:evenodd"
         id="path15"
         d="m 356.453,166.7 c -3.775,8.168 -7.55,16.336 -11.325,24.504 4.804,-7.996 8.507,-15.813 11.325,-24.504" />
      <path
         style="fill:#ff40ff;fill-rule:evenodd"
         id="path17"
         d="m 384.669,89.847 c 1.221,0.97 0.222,0.176 0,0" />
      <path
         style="fill:#ffffff;fill-rule:evenodd"
         id="path19"
         d="m 392.835,100.428 c -1.638,18.399 -12.409,35.727 -16.864,53.958 -6.161,25.216 -15.226,44.402 -30.101,65.591 -13.75,19.587 -24.015,40.556 -36.755,60.701 -7.444,11.771 -21.539,26.041 -25.061,38.241 10.831,4.429 -9.284,25.425 -12.81,30.814 -2.745,4.196 -6.613,9.126 -8.167,13.923 -2.308,7.126 -0.372,5.2 0,9.469 0.294,3.372 1.825,12.738 3.897,15.407 15.216,-16.028 22.212,-43.232 32.302,-62.56 -0.124,-0.107 -0.363,0.539 -0.372,0.557 -0.067,-0.236 -0.371,0.441 -0.372,0.372 -0.377,-8.477 7.446,-20.396 10.602,-27.97 7.816,-18.761 13.817,-38.421 28.382,-53.338 1.37,8.25 -6.913,13.899 -10.395,20.604 -3.251,6.263 -4.935,13.846 -7.612,20.42 17.981,-32.451 39.341,-62.159 54.206,-96.343 8.668,-19.929 43.282,-70.899 19.12,-89.846" />
      <path
         style="fill:#ffbf00"
         id="path21"
         d="m 169.519,22.647 c -2.95,9.911 -5.353,-1.566 -8.539,-0.37 -6.457,2.424 -10.309,12.261 -15.409,16.707 6.048,8.108 -2.084,2.817 -4.641,5.198 -5.098,4.746 -8.56,11.369 -12.994,16.707 4.843,2.297 15.287,8.593 6.127,12.438 -6.744,2.831 -16.532,-14.634 -20.419,0.557 11.69,-1.727 2.129,7.549 -0.187,11.879 -6.724,12.568 2.77,4.213 5.384,16.894 -6.297,-0.556 -25.073,-8.749 -18.563,8.354 1.16,3.048 14.71,3.667 9.282,10.395 -4.951,6.136 -10.94,-6.354 -15.872,1.392 -3.682,5.782 -5.637,12.546 -8.26,18.843 10.738,1.323 5.681,16.338 -2.971,5.941 -3.283,3.541 -5.757,7.631 -7.146,12.251 -2.257,7.508 9.508,6.416 8.168,14.016 -0.834,4.73 -5.909,-1.084 -8.075,-0.278 -1.295,0.481 -3.372,-2.579 -4.826,-2.043 -1.483,0.546 -2.97,5.929 -4.084,7.241 -7.11,8.37 -11.775,19.611 -18.749,28.401 5.707,1.757 9.083,5.435 6.311,9.282 -1.256,1.743 -5.799,-1.537 -7.054,-0.743 -1.969,1.246 -2.688,2.505 -5.569,5.384 -3.259,3.257 -11.224,8.378 -7.982,13.645 8.086,13.137 0.132,2.764 -4.27,5.29 -12.378,7.103 -5.641,14.393 6.404,19.028 11.114,4.276 22.134,8.611 33.321,12.715 18.764,6.883 37.335,14.277 55.441,22.753 18.055,8.45 32.784,22.785 50.185,30.524 15.31,6.809 28.682,14.173 44.365,20.048 5.277,1.977 30.722,8.813 32.766,11.603 0.34,0.464 0.681,0.928 1.021,1.392 8.387,-16.328 18.186,-27.51 29.517,-39.725 5.628,-6.067 7.4,-16.855 11.88,-25.432 19.19,-36.746 38.035,-74.23 55.849,-111.869 10.055,-21.245 18.314,-43.477 26.224,-65.619 1.615,-4.524 11.065,-23.56 7.59,-26.34 -4.568,-3.654 -9.42,-2.191 -14.48,-3.898 -16.961,-5.721 -30.593,-20.311 -48.286,-26.662 -20.706,-7.432 -40.103,-18.634 -61.237,-24.295 -24.956,-6.684 -58.03,-4.95 -78.06,-22.739 -5.096,-4.525 -12.883,-16.07 -17.356,-2.414 -1.807,5.505 3.083,8.93 5.194,13.549 m 3.712,92.632 c 12.373,-11.869 19.305,-29.097 28.216,-43.067 7.784,-12.204 13.564,-4.694 26.36,0.372 14.705,5.821 29.698,10.822 44.563,16.203 18.26,6.61 49.147,9.759 41.014,33.362 -7.037,20.418 -23.103,36.042 -28.03,57.731 10.759,-3.587 36.576,-12.793 25.617,7.612 -8.013,14.919 -28.445,17.36 -40.099,24.502 -11.554,7.082 -24.293,10.442 -36.198,16.986 -14.053,7.726 -32.838,23.021 -48.821,25.153 -11.147,1.487 -42.885,18.721 -37.312,-10.582 -20.296,3.788 -37.59,9.188 -54.206,-7.795 -11.401,-11.653 -9.777,-14.749 -0.743,-24.876 10.323,-11.572 12.999,-19.065 27.66,-24.504 24.316,-9.02 63.908,-26.145 83.535,0.372 11.415,15.421 -7.219,23.487 -14.479,35.642 27.315,-12.062 53.151,-27.534 81.308,-37.684 -7.645,-0.968 -15.224,-1.942 -22.092,-3.527 -19.308,-4.455 -32.604,-18.067 -50.028,-27.195 -7.259,-3.803 -33.497,-11.281 -35.177,-18.47 -0.75,-3.22 6.986,-15.813 8.912,-20.235" />
      <path
         style="fill:#6381de"
         id="path23"
         d="m 217.598,13.366 c -4.146,-0.928 -8.292,-1.856 -12.438,-2.785 3.341,0.831 16.444,4.992 12.438,2.785" />
      <path
         style="fill:#6381de;fill-rule:evenodd"
         id="path25"
         d="m 288.139,309.266 c -1.756,3.014 -3.063,6.415 -4.827,9.467 0.107,-0.09 0.467,-0.062 0.371,0.187 1.926,-2.401 4.032,-7.015 4.456,-9.654" />
      <path
         id="path27"
         d="m 324.151,240.767 c 4.585,-8.435 7.576,-17.778 10.397,-26.917 -13.477,30.204 -28.388,59.018 -42.696,88.734 10.92,-20.416 22.401,-40.93 32.299,-61.817" />
      <path
         id="path29"
         d="m 351.625,205.497 c 3.126,13.41 -9.277,34.026 -14.654,45.976 -7.637,16.969 -15.419,33.83 -23.585,50.554 -14.71,30.124 -29.099,60.924 -46.409,89.663 0.087,-0.173 0.679,-2.375 0.743,-2.785 2.288,3.072 5.567,4.821 8.91,6.497 15.596,-46.069 40.539,-90.241 61.598,-134.005 10.704,-22.245 20.44,-43.818 29.178,-66.853 6.705,-17.675 12.93,-39.628 23.451,-55.409 3.624,-5.436 20.574,-24.112 16.645,-29.517 C 402.457,102.679 396.199,96.782 390.981,90.034 381.817,78.181 374.751,77.976 362.682,69.93 327.255,46.312 285.315,27.259 243.415,19.059 c -7.874,-1.541 -15.694,-3.333 -23.59,-4.765 26.633,8.75 56.684,14.76 81.614,27.596 18.211,9.376 36.422,18.752 54.633,28.129 9.346,4.812 24.244,9.18 28.782,19.828 6.749,15.834 -17.865,55.087 -25.81,71.933 -6.464,13.707 -12.87,27.185 -19.299,40.932 20.373,-32.998 32.23,-69.44 49.749,-104.14 9.643,4.708 11.145,12.008 7.82,18.445 -15.229,29.493 -30.459,58.986 -45.689,88.48" />
      <path
         style="fill-rule:evenodd"
         id="path31"
         d="M 176.572,0 C 169.424,6.826 199.988,9.415 205.16,10.582 195.246,8.052 185.763,4.486 176.572,0" />
      <path
         style="fill-rule:evenodd"
         id="path33"
         d="m 355.896,175.795 c -3.401,9.495 -10.2,16.989 -15.315,25.524 -5.944,9.917 -8.292,21.111 -12.717,31.652 -11.122,26.499 -27.879,50.488 -39.354,76.852 0.229,0.065 0.414,0.189 0.559,0.372 18.012,-11.574 27.939,-46.67 40.096,-64.601 9.498,-14.009 19.475,-20.563 21.163,-37.684 1.646,-16.679 3.416,-30.513 10.864,-45.922 3.411,-7.056 36.792,-59.998 29.976,-62.86 -5.794,-2.432 -31.916,68.977 -35.272,76.667" />
      <path
         id="path35"
         d="m 392.28,103.769 c -2.352,-4.455 -4.702,-8.911 -7.054,-13.366 -9.425,25.517 -19.461,50.864 -28.589,76.481 17.726,-20.566 26.07,-37.449 35.643,-63.115" />
      <path
         style="fill-rule:evenodd"
         id="path37"
         d="m 334.548,213.665 c 2.523,-7.337 7.175,-15.181 10.579,-22.46 -13.011,22.072 -25.351,45.076 -33.042,69.613 7.557,-15.644 15.732,-31.159 22.463,-47.153" />
      <path
         style="fill-rule:evenodd"
         id="path39"
         d="m 191.238,18.935 c 19.09,6.06 38.686,8.208 58.103,12.715 20.64,4.791 37.304,15.851 57.106,21.792 18.335,5.501 34.49,13.748 50.189,24.525 8.536,5.86 20.719,5.433 28.032,11.879 C 375.082,74.127 351.287,67.556 335.697,59.529 319.582,51.232 304,41.948 286.768,36.287 249.378,24.003 213.049,12.361 174.714,3.712 c 3.806,5.971 11.16,11.844 16.524,15.223" />
      <path
         id="path41"
         d="m 303.918,277.524 c -6.497,9.601 -14.434,20.035 -15.594,31.928 5.489,-10.453 10.453,-21.249 15.594,-31.928" />
      <path
         id="path43"
         d="m 334.548,213.665 c 1.732,-3.651 3.465,-7.302 5.197,-10.953 -2.031,3.255 -4.258,8.173 -5.197,10.953" />
      <path
         id="path45"
         d="m 288.139,309.266 c -0.21,0.34 3.107,-4.786 3.713,-6.682 -1.007,2.239 -2.775,5.009 -3.713,6.682" />
      <path
         style="fill-rule:evenodd"
         id="path47"
         d="m 271.618,339.711 c 1.933,-2.991 3.735,-6.052 5.197,-9.282 -3.837,6.002 -7.673,12.003 -11.51,18.005 2.82,-2.497 4.799,-5.708 6.313,-8.723" />
      <path
         style="fill-rule:evenodd"
         id="path49"
         d="m 36.233,171.341 c -1.857,5.949 -2.226,12.772 2.414,17.448 5.198,-8.848 10.396,-17.697 15.594,-26.545 -6.585,1.786 -13.672,4.298 -18.008,9.097" />
      <path
         id="path51"
         d="m 31.036,201.414 c -15.058,-5.238 -24.86,16.494 -12.623,24.317 3.976,-8.243 7.71,-16.574 12.623,-24.317" />
      <path
         style="fill-rule:evenodd"
         id="path53"
         d="m 60.738,144.237 c 14.856,-4.901 27.504,-41.263 36.012,-54.39 -10.4,-1.641 -16.436,4.795 -14.85,14.294 1.026,6.146 -5.546,6.096 -8.354,9.653 -3.938,4.988 -3.22,5.699 -5.013,11.323 -1.302,4.084 3.783,8.418 -2.413,9.653 -3.974,0.792 -9.47,0.747 -12.529,3.806 -4.759,4.76 -1.13,16.188 2.506,20.511 4.091,-4.857 5.615,-9.205 4.641,-14.85" />
      <path
         id="path55"
         d="m 265.305,376.28 c -12.051,-9.661 9.28,-30.971 16.15,-41.396 2.399,-3.642 7.88,-8.923 6.313,-13.366 -2.871,-8.14 -10.861,9.223 -12.438,11.882 -10.641,17.941 -37.052,49.243 -3.897,63.115 -4.385,-7.39 -7.34,-11.37 -6.128,-20.235" />
      <path
         style="fill-rule:evenodd"
         id="path57"
         d="m 281.271,317.805 c -13.604,10.256 -20.988,25.483 -28.589,40.282 -5.845,-5.621 -34.525,-14.703 -44.365,-15.964 15.717,6.931 31.433,13.861 47.149,20.792 0.821,-10.153 33.453,-38.872 25.805,-45.11" />
      <path
         id="path59"
         d="m 276.815,330.429 c 2.66,-3.679 5.235,-7.447 7.24,-11.51 -0.115,0.112 -0.436,0.043 -0.372,-0.187 -0.124,0 -0.247,0 -0.371,0 -2.147,3.912 -4.266,7.818 -6.497,11.697" />
      <path
         style="fill-rule:evenodd"
         id="path61"
         d="m 255.654,359.944 c -0.059,1.056 -0.107,2.272 0.185,3.156 3.155,-4.889 6.312,-9.777 9.467,-14.666 -3.786,3.291 -7.407,7.198 -9.652,11.51" />
      <path
         style="fill-rule:evenodd"
         id="path63"
         d="m 163.765,132.357 c 0.607,11.018 26.574,16.828 35.733,21.626 9.089,4.762 16.758,9.304 24.783,15.871 10.88,8.904 18.075,8.627 30.814,10.768 8.834,1.484 13.639,5.88 23.391,1.484 11.674,-5.262 12.806,-21.882 20.048,-33.599 5.175,-8.372 22.015,-28.704 17.451,-39.912 -4.891,-12.013 -44.627,-20.074 -56.063,-24.132 -10.753,-3.816 -21.505,-7.681 -32.114,-11.881 -8.307,-3.289 -19.164,-12.71 -24.411,-3.712 -6.518,11.175 -12.543,20.569 -19.584,31.373 -5.114,7.847 -12.29,27.509 -20.048,32.114 m 15.22,-17.078 c 3.596,-8.828 12.031,-19.083 18.193,-26.267 9.093,-10.602 13.479,-10.266 26.73,-5.662 27.632,9.6 54.102,20.104 81.494,30.444 -10.192,17.345 -16.463,37.764 -26.731,54.576 -5.107,8.361 -4.463,7.396 -13.923,3.528 -5.385,-2.202 -9.889,-5.783 -15.592,-7.61 -15.986,-5.123 -28.153,-11.846 -43.619,-19.328 -3.667,-1.775 -29.933,-12.99 -29.244,-14.83 1.82,-4.858 3.075,-9.651 2.692,-14.851" />
      <path
         style="fill:#ffffff;fill-rule:evenodd"
         id="path65"
         d="m 231.334,159.831 c 6.106,2.521 12.695,2.749 18.936,4.827 7.194,2.396 13.03,7.834 20.141,10.024 9.588,2.953 12.225,-17.532 15.686,-25.061 5.658,-12.307 12.449,-24.158 19.307,-35.827 -19.173,-7.238 -37.203,-17.791 -56.805,-23.576 -16.828,-4.966 -36.696,-17.309 -49.75,-3.341 -9.542,10.21 -17.322,22.465 -20.233,35.549 -2.93,13.164 6.443,12.72 18.37,18.491 11.721,5.672 24.183,11.651 34.348,18.914" />
      <path
         style="fill-rule:evenodd"
         id="path67"
         d="m 319.51,286.434 c -6.435,13.335 -13.953,26.111 -20.232,39.539 8.034,-12.474 15.057,-25.627 20.232,-39.539" />
      <path
         style="fill-rule:evenodd"
         id="path69"
         d="m 331.205,254.32 c -13.683,15.45 -21.12,34.328 -28.332,53.387 -2.799,7.394 -11.372,20.004 -10.464,28.105 7.975,-15.241 17.25,-31.279 23.761,-47.522 3.478,-8.677 16.743,-25.727 15.035,-33.97" />
      <path
         style="fill:#ffffff;fill-rule:evenodd"
         id="path71"
         d="m 240.616,369.783 c -3.31,-7.117 -10.363,-7.007 -17.077,-8.445 -6.949,-1.489 -10.292,-7.897 -17.078,-11.231 -8.733,-4.291 -18.092,-4.99 -27.406,-6.854 -11.762,-2.354 -22.561,-10.259 -32.588,-16.452 C 122.585,312.051 94.968,301.452 69.03,290.506 53.458,283.934 32.239,275.635 20.27,262.86 c 4.085,3.91 6.088,9.971 0.371,12.81 16.357,13.891 37.836,16.38 56.99,24.502 32.577,13.813 63.121,34.166 94.859,50.03 18.423,9.208 37.184,17.865 56.805,24.224 3.302,1.07 22.669,10.213 26.36,6.684 0.681,-0.65 -0.575,-10.307 -0.929,-10.767 -4.113,-5.357 -7.79,-0.649 -14.11,-0.56" />
      <path
         style="fill:#ffffff;fill-rule:evenodd"
         id="path73"
         d="m 255.466,377.023 c 0.164,-2.788 1.417,-4.019 -0.371,-6.497 -0.018,2.095 0.283,5.057 0.371,6.497" />
      <path
         style="fill:#ffbfbf;fill-rule:evenodd"
         id="path75"
         d="m 143.345,227.403 c -1.497,-0.57 -2.758,-0.97 -3.899,-2.229 12.075,-5.272 24.201,-10.577 36.386,-15.594 6.22,-2.561 32.275,-7.091 25.152,-17.264 -11.766,-16.805 -25.425,-11.106 -42.231,-6.312 -7.776,2.219 -43.382,7.004 -45.852,15.965 -3.711,13.466 33.777,12.077 21.348,35.455 20.915,-4.286 42.987,-7.768 59.588,-22.275 -0.02,0.368 -0.643,1.441 -0.557,1.671 2.162,-2.345 3.98,-5.155 5.569,-7.981 -18.038,7.364 -35.789,15.418 -55.504,18.564" />
      <path
         id="path77"
         d="m 190.31,222.39 c 1.262,-1.835 2.384,-3.374 2.969,-5.569 -2.97,2.784 -5.94,5.569 -8.91,8.354 1.977,-0.905 4.028,-1.75 5.941,-2.785" />
      <path
         id="path79"
         d="m 161.722,232.6 c -10.829,2.97 -21.657,5.94 -32.486,8.91 8.335,-20.692 1.086,-22.461 -16.818,-33.027 -18.809,-11.1 15.289,-16.338 21.075,-17.891 17.341,-4.655 34.683,-9.309 52.024,-13.963 4.824,-1.295 10.496,8.217 12.474,11.081 7.495,10.85 8.087,10.089 0.858,21.129 23.76,-5.501 0.134,-30.68 -11.694,-35.086 -15.264,-5.686 -38.658,2.729 -53.111,7.914 -7.663,2.75 -20.981,5.054 -27.268,10.093 -2.321,1.86 -6.375,11.304 -9.653,14.851 -8.69,9.401 -15.719,12.121 -6.775,24.503 8.632,11.951 19.221,16.66 33.321,16.15 7.581,-0.274 15.542,-2.154 23.762,-3.527 2.26,-0.377 10.995,-9.454 14.291,-11.137 m -40.653,8.725 c -7.491,-0.695 -14.189,-3.838 -20.049,-8.446 -8.257,-6.492 -6.249,-6.667 -3.527,-12.531 9.733,-20.974 23.105,-2.74 35.827,6.684 -3.584,5.246 -5.953,11.825 -12.251,14.293" />
      <path
         style="fill-rule:evenodd"
         id="path81"
         d="m 192.908,180.623 c -7.565,-7.773 -20.051,-0.596 -28.664,1.716 -16.328,4.382 -32.655,8.765 -48.982,13.146 -13.61,3.653 -5.102,11.666 3.742,16.885 15.429,9.105 17.064,12.179 10.232,29.141 14.289,-3.896 56.784,-9.233 64.6,-26.36 -16.601,14.508 -38.673,17.989 -59.588,22.275 12.814,-24.103 -23.825,-20.091 -21.533,-34.898 1.375,-8.888 38.72,-14.434 46.037,-16.521 12.819,-3.657 34.257,-12.346 41.581,5.383 5.194,12.574 -13.389,13.814 -22.914,17.566 -12.769,5.03 -25.396,10.728 -37.974,16.22 7.686,6.249 36.447,-5.494 45.295,-8.91 3.015,-1.164 8.593,-4.136 11.138,-6.127 13.844,-10.835 6.446,-17.143 -2.97,-29.516" />
      <path
         style="fill:#ff8080;fill-rule:evenodd"
         id="path83"
         d="m 118.098,215.707 c -11.549,-13.446 -9.027,-3.104 -18.006,2.507 -7.777,4.859 -7.157,6.919 -0.371,13.644 14.852,14.717 24.263,8.843 33.599,-4.826 -5.081,-3.765 -10.186,-7.51 -15.222,-11.325" />
      <path
         style="fill:#d010b1;fill-rule:evenodd"
         id="path85"
         d="m 302.247,184.892 c -14.661,-2.59 -40.56,13.358 -54.576,18.748 -18.712,7.197 -35.801,17.47 -54.204,25.248 0.852,2.188 2.439,5.919 3.341,7.797 16.091,-1.609 29.216,-14.149 44.645,-18.564 6.11,-1.748 26.234,-10.636 29.237,-7.611 1.856,-0.928 3.713,-1.856 5.569,-2.784 -0.511,0.101 -2.226,0.86 -2.6,0.743 9.734,-7.528 22.474,-12.251 28.588,-23.577" />
      <path
         id="path87"
         d="m 208.13,238.168 c -2.83,0.552 -11.908,4.028 -14.294,2.785 -3.41,-1.776 -6.467,-12.305 -3.898,-14.758 8.862,-8.46 24.723,-12.672 35.718,-17.869 16.349,-7.729 33.676,-13.085 50.417,-19.907 -6.511,-10.743 -76.912,28.337 -86.878,35.455 -5.895,4.211 -10.19,9.365 -16.892,12.716 -8.43,4.216 -23.543,3.251 -23.948,12.717 -1.062,24.819 42.773,4.117 50.68,0.185 16.378,-8.146 29.479,-19.655 47.335,-25.339 7.235,-2.303 22.386,-5.924 24.318,-13.645 -20.323,10.596 -41.355,18.936 -62.558,27.66 m -52.534,12.996 c -1.637,-4.062 -0.224,-8.91 4.919,-8.91 4.242,0 3.53,7.269 6.034,7.61 9.635,1.314 1.22,-4.4 3.341,-8.169 0.905,-1.608 18.248,-13.792 18.941,-6.001 1.029,11.558 -22.507,22.04 -33.235,15.47" />
      <path
         id="path89"
         d="m 294.822,181.179 c 5.074,0.433 10.147,0.866 15.222,1.299 -11.083,9.605 -20.787,18.538 -33.785,25.246 7.428,-1.778 48.519,-16.64 38.055,-31.743 -4.819,-6.956 -29.87,1.983 -30.073,9.282 3.354,-1.281 7.942,-2.933 10.581,-4.084" />
      <path
         id="path91"
         d="m 276.073,188.419 c 5.151,-0.65 9.416,-3.173 9.282,-8.54 -4.628,1.477 -9.257,2.939 -13.737,4.827 2.355,0.722 2.708,2.506 4.455,3.713" />
      <path
         id="path93"
         d="m 190.31,222.39 c -11.06,5.843 -37.837,7.531 -41.768,21.161 15.767,-3.149 31.487,-7.961 41.768,-21.161" />
      <path
         style="fill-rule:evenodd"
         id="path95"
         d="m 161.722,232.6 c 7.573,-2.047 16.236,-3.091 22.647,-7.426 -7.239,2.999 -15.339,3.985 -22.647,7.426" />
      <path
         id="path97"
         d="m 310.043,182.479 c -14.954,-1.108 -17.609,1.822 -28.217,5.941 -14.367,5.579 -33.112,9.659 -49.008,16.521 -10.574,4.564 -33.514,10.715 -40.839,19.307 -3.223,3.779 -4.903,13.186 1.856,16.707 3.444,1.794 14.386,-2.823 18.458,-4.498 8.043,-3.311 57.174,-18.146 57.839,-27.616 -12.483,4.936 -26.085,7.126 -38.427,12.251 -11.881,4.934 -21.628,14.267 -34.898,15.594 -0.901,-1.878 -2.489,-5.609 -3.341,-7.797 17.602,-7.439 33.952,-17.33 51.791,-24.319 14.39,-5.638 41.888,-22.344 56.989,-19.676 -6.005,11.125 -19.484,16.601 -28.401,23.389 14.161,-3.983 25.2,-16.273 36.198,-25.804" />
      <path
         style="fill-rule:evenodd"
         id="path99"
         d="m 283.683,186.563 c -0.138,-0.052 -4.241,0.163 -7.61,2.042 0.029,0.015 0.432,0.192 0.186,0.372 3.808,1.177 4.599,-0.891 7.424,-2.414" />
      <path
         style="fill:#ffffff;fill-rule:evenodd"
         id="path101"
         d="m 172.675,236.684 c -7.77,3.694 2.219,6.602 -0.372,10.395 -5.197,7.608 -3.101,0.266 -7.425,-0.556 -1.226,-0.232 -11.981,-8.983 -10.395,2.041 1.732,12.036 24.184,0.86 28.586,-3.156 14.838,-13.535 0.103,-9.428 -10.394,-8.724" />
    </g>
  </g>
</svg>
